<svg width="1200" height="800" xmlns="http://www.w3.org/2000/svg">
  <!-- Title -->
  <text x="600" y="30" text-anchor="middle" font-family="Arial" font-size="18" font-weight="bold">Telehealth System - Use Case Diagram</text>
  
  <!-- System Boundary -->
  <rect x="200" y="80" width="800" height="650" fill="#F8F8FF" stroke="#4B0082" stroke-width="3" rx="10"/>
  <text x="600" y="105" text-anchor="middle" font-family="Arial" font-size="16" font-weight="bold">Telehealth System (THS)</text>
  
  <!-- Actors -->
  <!-- Patient -->
  <circle cx="80" cy="140" r="20" fill="#E6F3FF" stroke="#0066CC"/>
  <line x1="80" y1="160" x2="80" y2="200" stroke="#0066CC" stroke-width="2"/>
  <line x1="80" y1="180" x2="60" y2="210" stroke="#0066CC" stroke-width="2"/>
  <line x1="80" y1="180" x2="100" y2="210" stroke="#0066CC" stroke-width="2"/>
  <line x1="80" y1="200" x2="60" y2="230" stroke="#0066CC" stroke-width="2"/>
  <line x1="80" y1="200" x2="100" y2="230" stroke="#0066CC" stroke-width="2"/>
  <text x="80" y="250" text-anchor="middle" font-family="Arial" font-size="12" font-weight="bold">Patient</text>
  
  <!-- Specialist -->
  <circle cx="1120" cy="200" r="20" fill="#FFE6E6" stroke="#CC0000"/>
  <line x1="1120" y1="220" x2="1120" y2="260" stroke="#CC0000" stroke-width="2"/>
  <line x1="1120" y1="240" x2="1100" y2="270" stroke="#CC0000" stroke-width="2"/>
  <line x1="1120" y1="240" x2="1140" y2="270" stroke="#CC0000" stroke-width="2"/>
  <line x1="1120" y1="260" x2="1100" y2="290" stroke="#CC0000" stroke-width="2"/>
  <line x1="1120" y1="260" x2="1140" y2="290" stroke="#CC0000" stroke-width="2"/>
  <text x="1120" y="310" text-anchor="middle" font-family="Arial" font-size="12" font-weight="bold">Specialist</text>
  
  <!-- Healthcare Coordinator -->
  <circle cx="80" cy="500" r="20" fill="#E6FFE6" stroke="#009900"/>
  <line x1="80" y1="520" x2="80" y2="560" stroke="#009900" stroke-width="2"/>
  <line x1="80" y1="540" x2="60" y2="570" stroke="#009900" stroke-width="2"/>
  <line x1="80" y1="540" x2="100" y2="570" stroke="#009900" stroke-width="2"/>
  <line x1="80" y1="560" x2="60" y2="590" stroke="#009900" stroke-width="2"/>
  <line x1="80" y1="560" x2="100" y2="590" stroke="#009900" stroke-width="2"/>
  <text x="80" y="610" text-anchor="middle" font-family="Arial" font-size="12" font-weight="bold">Healthcare</text>
  <text x="80" y="625" text-anchor="middle" font-family="Arial" font-size="12" font-weight="bold">Coordinator</text>
  
  <!-- System Administrator -->
  <circle cx="1120" cy="600" r="20" fill="#FFFFCC" stroke="#CCCC00"/>
  <line x1="1120" y1="620" x2="1120" y2="660" stroke="#CCCC00" stroke-width="2"/>
  <line x1="1120" y1="640" x2="1100" y2="670" stroke="#CCCC00" stroke-width="2"/>
  <line x1="1120" y1="640" x2="1140" y2="670" stroke="#CCCC00" stroke-width="2"/>
  <line x1="1120" y1="660" x2="1100" y2="690" stroke="#CCCC00" stroke-width="2"/>
  <line x1="1120" y1="660" x2="1140" y2="690" stroke="#CCCC00" stroke-width="2"/>
  <text x="1120" y="710" text-anchor="middle" font-family="Arial" font-size="12" font-weight="bold">System Admin</text>
  
  <!-- Use Cases -->
  <!-- Row 1 -->
  <ellipse cx="300" cy="150" rx="80" ry="30" fill="#FFFFFF" stroke="#000000"/>
  <text x="300" y="150" text-anchor="middle" font-family="Arial" font-size="10">Register</text>
  <text x="300" y="165" text-anchor="middle" font-family="Arial" font-size="10">Account</text>
  
  <ellipse cx="480" cy="150" rx="80" ry="30" fill="#FFFFFF" stroke="#000000"/>
  <text x="480" y="150" text-anchor="middle" font-family="Arial" font-size="10">Login to</text>
  <text x="480" y="165" text-anchor="middle" font-family="Arial" font-size="10">System</text>
  
  <ellipse cx="660" cy="150" rx="80" ry="30" fill="#FFFFFF" stroke="#000000"/>
  <text x="660" y="150" text-anchor="middle" font-family="Arial" font-size="10">Book</text>
  <text x="660" y="165" text-anchor="middle" font-family="Arial" font-size="10">Consultation</text>
  
  <ellipse cx="840" cy="150" rx="80" ry="30" fill="#FFFFFF" stroke="#000000"/>
  <text x="840" y="150" text-anchor="middle" font-family="Arial" font-size="10">View</text>
  <text x="840" y="165" text-anchor="middle" font-family="Arial" font-size="10">Schedule</text>
  
  <!-- Row 2 -->
  <ellipse cx="300" cy="230" rx="80" ry="30" fill="#FFFFFF" stroke="#000000"/>
  <text x="300" y="230" text-anchor="middle" font-family="Arial" font-size="10">Join Video</text>
  <text x="300" y="245" text-anchor="middle" font-family="Arial" font-size="10">Consultation</text>
  
  <ellipse cx="480" cy="230" rx="80" ry="30" fill="#FFFFFF" stroke="#000000"/>
  <text x="480" y="230" text-anchor="middle" font-family="Arial" font-size="10">Join Audio</text>
  <text x="480" y="245" text-anchor="middle" font-family="Arial" font-size="10">Consultation</text>
  
  <ellipse cx="660" cy="230" rx="80" ry="30" fill="#FFFFFF" stroke="#000000"/>
  <text x="660" y="230" text-anchor="middle" font-family="Arial" font-size="10">Conduct</text>
  <text x="660" y="245" text-anchor="middle" font-family="Arial" font-size="10">Consultation</text>
  
  <ellipse cx="840" cy="230" rx="80" ry="30" fill="#FFFFFF" stroke="#000000"/>
  <text x="840" y="230" text-anchor="middle" font-family="Arial" font-size="10">Update Patient</text>
  <text x="840" y="245" text-anchor="middle" font-family="Arial" font-size="10">Records</text>
  
  <!-- Row 3 -->
  <ellipse cx="300" cy="310" rx="80" ry="30" fill="#FFFFFF" stroke="#000000"/>
  <text x="300" y="310" text-anchor="middle" font-family="Arial" font-size="10">Upload</text>
  <text x="300" y="325" text-anchor="middle" font-family="Arial" font-size="10">Vital Signs</text>
  
  <ellipse cx="480" cy="310" rx="80" ry="30" fill="#FFFFFF" stroke="#000000"/>
  <text x="480" y="310" text-anchor="middle" font-family="Arial" font-size="10">Monitor</text>
  <text x="480" y="325" text-anchor="middle" font-family="Arial" font-size="10">Health Data</text>
  
  <ellipse cx="660" cy="310" rx="80" ry="30" fill="#FFFFFF" stroke="#000000"/>
  <text x="660" y="310" text-anchor="middle" font-family="Arial" font-size="10">Request</text>
  <text x="660" y="325" text-anchor="middle" font-family="Arial" font-size="10">Prescription Refill</text>
  
  <ellipse cx="840" cy="310" rx="80" ry="30" fill="#FFFFFF" stroke="#000000"/>
  <text x="840" y="310" text-anchor="middle" font-family="Arial" font-size="10">Approve</text>
  <text x="840" y="325" text-anchor="middle" font-family="Arial" font-size="10">Prescription</text>
  
  <!-- Row 4 -->
  <ellipse cx="300" cy="390" rx="80" ry="30" fill="#FFFFFF" stroke="#000000"/>
  <text x="300" y="390" text-anchor="middle" font-family="Arial" font-size="10">Access</text>
  <text x="300" y="405" text-anchor="middle" font-family="Arial" font-size="10">Health Education</text>
  
  <ellipse cx="480" cy="390" rx="80" ry="30" fill="#FFFFFF" stroke="#000000"/>
  <text x="480" y="390" text-anchor="middle" font-family="Arial" font-size="10">Sync Mobile</text>
  <text x="480" y="405" text-anchor="middle" font-family="Arial" font-size="10">Health Apps</text>
  
  <ellipse cx="660" cy="390" rx="80" ry="30" fill="#FFFFFF" stroke="#000000"/>
  <text x="660" y="390" text-anchor="middle" font-family="Arial" font-size="10">Generate</text>
  <text x="660" y="405" text-anchor="middle" font-family="Arial" font-size="10">Health Reports</text>
  
  <ellipse cx="840" cy="390" rx="80" ry="30" fill="#FFFFFF" stroke="#000000"/>
  <text x="840" y="390" text-anchor="middle" font-family="Arial" font-size="10">Receive</text>
  <text x="840" y="405" text-anchor="middle" font-family="Arial" font-size="10">Notifications</text>
  
  <!-- Row 5 -->
  <ellipse cx="300" cy="470" rx="80" ry="30" fill="#FFFFFF" stroke="#000000"/>
  <text x="300" y="470" text-anchor="middle" font-family="Arial" font-size="10">Coordinate</text>
  <text x="300" y="485" text-anchor="middle" font-family="Arial" font-size="10">Care</text>
  
  <ellipse cx="480" cy="470" rx="80" ry="30" fill="#FFFFFF" stroke="#000000"/>
  <text x="480" y="470" text-anchor="middle" font-family="Arial" font-size="10">Manage</text>
  <text x="480" y="485" text-anchor="middle" font-family="Arial" font-size="10">Referrals</text>
  
  <ellipse cx="660" cy="470" rx="80" ry="30" fill="#FFFFFF" stroke="#000000"/>
  <text x="660" y="470" text-anchor="middle" font-family="Arial" font-size="10">Interface with</text>
  <text x="660" y="485" text-anchor="middle" font-family="Arial" font-size="10">External Systems</text>
  
  <ellipse cx="840" cy="470" rx="80" ry="30" fill="#FFFFFF" stroke="#000000"/>
  <text x="840" y="470" text-anchor="middle" font-family="Arial" font-size="10">Emergency</text>
  <text x="840" y="485" text-anchor="middle" font-family="Arial" font-size="10">Consultation</text>
  
  <!-- Row 6 -->
  <ellipse cx="400" cy="550" rx="80" ry="30" fill="#FFFFFF" stroke="#000000"/>
  <text x="400" y="550" text-anchor="middle" font-family="Arial" font-size="10">Manage</text>
  <text x="400" y="565" text-anchor="middle" font-family="Arial" font-size="10">User Accounts</text>
  
  <ellipse cx="600" cy="550" rx="80" ry="30" fill="#FFFFFF" stroke="#000000"/>
  <text x="600" y="550" text-anchor="middle" font-family="Arial" font-size="10">System</text>
  <text x="600" y="565" text-anchor="middle" font-family="Arial" font-size="10">Maintenance</text>
  
  <ellipse cx="800" cy="550" rx="80" ry="30" fill="#FFFFFF" stroke="#000000"/>
  <text x="800" y="550" text-anchor="middle" font-family="Arial" font-size="10">Generate</text>
  <text x="800" y="565" text-anchor="middle" font-family="Arial" font-size="10">Reports</text>
  
  <!-- Creative Features -->
  <ellipse cx="300" cy="630" rx="80" ry="30" fill="#FFE6FF" stroke="#800080"/>
  <text x="300" y="630" text-anchor="middle" font-family="Arial" font-size="10">AI Symptom</text>
  <text x="300" y="645" text-anchor="middle" font-family="Arial" font-size="10">Assessment</text>
  
  <ellipse cx="600" cy="630" rx="80" ry="30" fill="#FFE6FF" stroke="#800080"/>
  <text x="600" y="630" text-anchor="middle" font-family="Arial" font-size="10">Community</text>
  <text x="600" y="645" text-anchor="middle" font-family="Arial" font-size="10">Support</text>
  
  <!-- Association lines -->
  <!-- Patient associations -->
  <line x1="100" y1="160" x2="220" y2="150" stroke="#000000" stroke-width="1"/>
  <line x1="100" y1="170" x2="220" y2="230" stroke="#000000" stroke-width="1"/>
  <line x1="100" y1="180" x2="220" y2="310" stroke="#000000" stroke-width="1"/>
  <line x1="100" y1="190" x2="220" y2="390" stroke="#000000" stroke-width="1"/>
  <line x1="100" y1="200" x2="220" y2="470" stroke="#000000" stroke-width="1"/>
  <line x1="100" y1="210" x2="220" y2="630" stroke="#000000" stroke-width="1"/>
  
  <line x1="120" y1="180" x2="400" y2="150" stroke="#000000" stroke-width="1"/>
  <line x1="120" y1="190" x2="400" y2="230" stroke="#000000" stroke-width="1"/>
  <line x1="120" y1="200" x2="400" y2="390" stroke="#000000" stroke-width="1"/>
  
  <line x1="140" y1="200" x2="580" y2="150" stroke="#000000" stroke-width="1"/>
  <line x1="140" y1="210" x2="580" y2="310" stroke="#000000" stroke-width="1"/>
  <line x1="140" y1="220" x2="580" y2="390" stroke="#000000" stroke-width="1"/>
  <line x1="140" y1="230" x2="580" y2="630" stroke="#000000" stroke-width="1"/>
  
  <line x1="160" y1="230" x2="760" y2="390" stroke="#000000" stroke-width="1"/>
  <line x1="160" y1="240" x2="760" y2="470" stroke="#000000" stroke-width="1"/>
  
  <!-- Specialist associations -->
  <line x1="1100" y1="220" x2="920" y2="150" stroke="#000000" stroke-width="1"/>
  <line x1="1080" y1="240" x2="740" y2="230" stroke="#000000" stroke-width="1"/>
  <line x1="1080" y1="250" x2="740" y2="310" stroke="#000000" stroke-width="1"/>
  <line x1="1080" y1="260" x2="920" y2="230" stroke="#000000" stroke-width="1"/>
  <line x1="1080" y1="270" x2="920" y2="310" stroke="#000000" stroke-width="1"/>
  <line x1="1080" y1="280" x2="560" y2="310" stroke="#000000" stroke-width="1"/>
  
  <!-- Healthcare Coordinator associations -->
  <line x1="100" y1="480" x2="380" y2="470" stroke="#000000" stroke-width="1"/>
  <line x1="120" y1="490" x2="560" y2="470" stroke="#000000" stroke-width="1"/>
  <line x1="140" y1="500" x2="580" y2="470" stroke="#000000" stroke-width="1"/>
  
  <!-- System Administrator associations -->
  <line x1="1100" y1="580" x2="880" y2="550" stroke="#000000" stroke-width="1"/>
  <line x1="1080" y1="590" x2="680" y2="550" stroke="#000000" stroke-width="1"/>
  <line x1="1060" y1="600" x2="480" y2="550" stroke="#000000" stroke-width="1"/>
  
  <!-- Includes relationships -->
  <line x1="380" y1="150" x2="400" y2="150" stroke="#808080" stroke-width="1" stroke-dasharray="5,5"/>
  <text x="390" y="145" font-family="Arial" font-size="8">«includes»</text>
  
  <!-- Legend -->
  <rect x="50" y="750" width="400" height="40" fill="white" stroke="#000000" stroke-width="1"/>
  <text x="60" y="770" font-family="Arial" font-size="12" font-weight="bold">Legend:</text>
  <ellipse cx="120" cy="785" rx="15" ry="8" fill="#FFFFFF" stroke="#000000"/>
  <text x="145" y="790" font-family="Arial" font-size="10">Use Case</text>
  <ellipse cx="220" cy="785" rx="15" ry="8" fill="#FFE6FF" stroke="#800080"/>
  <text x="245" y="790" font-family="Arial" font-size="10">Creative Feature</text>
  <line x1="320" y1="785" x2="340" y2="785" stroke="#000000" stroke-width="1"/>
  <text x="350" y="790" font-family="Arial" font-size="10">Association</text>
</svg>